General                          : ChattChitto RG - Movies

Complete name                    : Edge Of Darkness 2010 BRRip.mp4
Format                           : MPEG-4
Format profile                   : Base Media
Codec ID                         : isom
File size                        : 2.17 GiB
Duration                         : 1h 56mn
Overall bit rate                 : 2 656 Kbps
Encoded date                     : UTC 2010-05-17 15:38:54

Video
==========
ID                               : 1
Format                           : AVC
Format/Info                      : Advanced Video Codec
Format profile                   : High@L4.0
Format settings, CABAC           : Yes
Format settings, ReFrames        : 4 frames
Codec ID                         : avc1
Codec ID/Info                    : Advanced Video Coding
Duration                         : 1h 56mn
Bit rate mode                    : Variable
Bit rate                         : 2 300 Kbps
Maximum bit rate                 : 13.0 Mbps
Width                            : 1 280 pixels
Height                           : 528 pixels
Display aspect ratio             : 2.40:1
Frame rate mode                  : Constant
Frame rate                       : 23.976 fps
Resolution                       : 8 bits
Colorimetry                      : 4:2:0
Scan type                        : Progressive
Bits/(Pixel*Frame)               : 0.142
Stream size                      : 1.88 GiB (87%)
Writing library                  : x264 core 84 r1400M 20fa784
Encoded date                     : UTC 2010-05-16 19:04:49

Audio
==========
ID                               : 2
Format                           : AAC
Format/Info                      : Advanced Audio Codec
Format version                   : Version 4
Format profile                   : LC
Format settings, SBR             : No
Codec ID                         : 40
Duration                         : 1h 56mn
Bit rate mode                    : Variable
Bit rate                         : 352.8 Kbps
Maximum bit rate                 : 461 Kbps
Channel(s)                       : 6 channels
Channel positions                : Front: L C R, Side: L R, LFE
Sampling rate                    : 48.0 KHz
Stream size                      : 295 MiB (13%)
Encoded date                     : UTC 2010-05-17 15:40:07

Subtitles                        : English | Dutch | French | Portuguese | Spanish


----------------------------------------------------
IMDB Link: http://www.imdb.com/title/tt1226273/
----------------------------------------------------



Screen Shots:
==============   
http://img249.imageshack.us/img249/4514/18847967.jpg 
http://img412.imageshack.us/img412/7559/40991246.jpg 
http://img63.imageshack.us/img63/8938/50730199.jpg 
http://img33.imageshack.us/img33/8444/48790421.jpg 
http://img218.imageshack.us/img218/1130/68719502.jpg



Plot:
======
A cop and widower witnesses what first appears to be the accidental killing of his daughter, Emma. Distraught by the loss and further troubled by his conviction that the bullet was intended for him, he takes on the murder investigation with an obsessive zeal to see justice done. The investigation leads him to uncover an illegal plutonium stockpile.    




Release Info:
==============
original name .... : Edge Of Darkness 2010 BRRip.mp4
ripper.............: ExtraScene RG
encoder............: Recalled2Life (R2L)
video codec........: H264/.MP4                   
video bitrate......: 2300 Kbps                           
audio codec........: AAC-LC
aspect ratio.......: 2.40:1                              
resolution.........: 1280 x 528                             
genre..............: Crime | Drama | Thriller          
runtime............: 1h 56mn
language...........: English
rating.............: R                             
subtitles..........: English | Dutch | French | Portuguese | Spanish
sample.............: Yes
2ch Audio..........: 2ch Audio for XBox Viewers  
Compatibility .....: XBox 360 | PS3 | WD Live 



Source:
========
Edge of Darkness 2010 BDrip 1080p DTSMA-ExtraScene RG


Notes:
=======
ChattChitto RG Encourages Burning this Film with ConvertXtoDVD.
XBox 360 | PS3 | WD Live - Compatible
Enhanced and Filtered for your viewing pleasure ;)